<svg viewBox="0 0 47 47" fill="none" xmlns="http://www.w3.org/2000/svg">
<path d="M20.2398 25.6853C19.9591 25.6345 13.3232 24.4849 9.73835 28.075C6.80911 31.0083 7.0431 35.982 7.25295 37.8495L6.08768 39.0164C5.55121 39.5537 5.55323 40.4226 6.09217 40.9573C6.6312 41.492 7.50291 41.4901 8.03946 40.9528L9.20133 39.7894C9.69456 39.8447 10.4014 39.9013 11.2292 39.9013C13.5464 39.9013 16.8084 39.4573 18.9656 37.297C22.5467 33.7109 21.4001 27.0741 21.3495 26.7932C21.2479 26.2293 20.8055 25.7874 20.2398 25.6853ZM17.0138 35.3606C15.681 36.6953 13.5681 37.0831 11.8399 37.1472L15.9006 33.0808C16.437 32.5435 16.435 31.6746 15.8961 31.1399C15.357 30.6051 14.4853 30.6073 13.9488 31.1443L9.90275 35.1961C9.98096 33.3925 10.4086 31.2948 11.6902 30.0114C13.5871 28.1117 17.0653 28.1292 18.7636 28.2702C18.9268 30.2245 18.7938 33.578 17.0138 35.3606Z" fill="#F5C542"/>
<path d="M45.623 20.0045H44.2301L40.4958 1.10722C40.3687 0.463895 39.8028 0 39.1448 0H32.764C32.1061 0 31.5402 0.463895 31.4131 1.10722L27.6788 20.0045H24.9799V10.2485C24.9799 9.02839 23.4927 8.41343 22.627 9.28028L13.867 18.0526V10.2485C13.867 9.02857 12.3798 8.41334 11.5142 9.28028L0.405742 20.4042C0.140725 20.6671 0 21.0283 0 21.377V45.4745C0 46.2325 0.616508 46.847 1.37695 46.847H45.623C46.3835 46.847 47 46.2325 47 45.4745V21.377C47 20.619 46.3835 20.0045 45.623 20.0045ZM33.8963 2.74494H38.0127L41.4233 20.0045H30.4857L33.8963 2.74494ZM22.226 20.0045H15.8034L22.226 13.5729V20.0045ZM11.1131 20.0045H4.69055L11.1131 13.5729V20.0045ZM33.172 44.1021V29.9518H38.737V44.1021H33.172ZM44.2461 44.1021H41.4909V28.5793C41.4909 27.8214 40.8744 27.2069 40.1139 27.2069H31.795C31.0346 27.2069 30.4181 27.8214 30.4181 28.5793V44.1021H2.75391V22.7494H44.2461V44.1021Z" fill="#F5C542"/>
</svg>
