<svg viewBox="0 0 50 50" fill="none" xmlns="http://www.w3.org/2000/svg">
<path d="M13.3301 4.59961C7.20703 7.11914 2.08984 9.25781 1.96289 9.35546C1.82617 9.45312 1.63086 9.6582 1.52344 9.80468C1.31836 10.0684 1.31836 10.0781 1.31836 25C1.31836 39.9219 1.31836 39.9316 1.52344 40.1953C1.63086 40.3418 1.82617 40.5469 1.96289 40.6445C2.08984 40.7422 7.22656 42.8906 13.3691 45.4102C22.7148 49.248 24.6094 50 25 50C25.3906 50 27.2852 49.248 36.6309 45.4199C42.7637 42.8906 47.9004 40.752 48.0371 40.6445C48.1641 40.5469 48.3691 40.3418 48.4766 40.1953C48.6816 39.9316 48.6816 39.9219 48.6816 25C48.6816 10.0781 48.6816 10.0684 48.4766 9.80468C48.3691 9.6582 48.1738 9.45312 48.0371 9.35546C47.9004 9.24804 42.7734 7.10937 36.6309 4.58007C26.6895 0.498043 25.4102 -3.8147e-06 24.9707 0.00976181C24.5312 0.00976181 22.8906 0.664059 13.3301 4.59961ZM27.5195 4.35546C28.8965 4.92187 30.0586 5.41015 30.0977 5.45898C30.1465 5.49804 29.0039 6.03515 27.5586 6.66992C26.123 7.29492 22.2266 8.99414 18.8965 10.4492L12.8418 13.0957L9.92188 11.8945C8.31055 11.2402 7.04102 10.6934 7.08984 10.6738C7.13867 10.6543 11.1816 8.99414 16.0645 6.98242C20.957 4.98046 24.9609 3.33007 24.9805 3.32031C24.9902 3.32031 26.1328 3.77929 27.5195 4.35546ZM38.5742 8.89648C40.8008 9.81445 42.7051 10.5957 42.8125 10.6348C42.9395 10.6836 40.293 11.8164 33.9941 14.3945L25 18.0957L21.123 16.5039C18.9844 15.625 17.207 14.8828 17.1582 14.8437C17.0898 14.7852 34.1797 7.25586 34.4238 7.23632C34.4824 7.22656 36.3477 7.97851 38.5742 8.89648ZM7.71484 14.5019C8.97461 15.0195 10.332 15.5762 10.7227 15.7422L11.4258 16.0352V20.2246C11.4258 23.5742 11.4551 24.4824 11.5625 24.7363C12.0996 25.9961 13.916 26.0742 14.4922 24.8633C14.6289 24.5801 14.6484 24.0527 14.6484 20.9473C14.6484 17.5684 14.6582 17.3633 14.8242 17.4219C14.9121 17.4609 16.8652 18.2617 19.1699 19.209L23.3398 20.918V33.457V45.9961L23.0273 45.8691C22.8516 45.791 18.6035 44.0527 13.6035 41.9922L4.49219 38.252V25.7227V13.1836L4.96094 13.3691C5.21484 13.4668 6.45508 13.9844 7.71484 14.5019ZM45.5078 25.7227V38.252L40.0195 40.5078C36.9922 41.7578 32.7637 43.4961 30.6152 44.375L26.709 45.9766L26.6797 33.4766C26.6699 26.5918 26.6699 20.9473 26.6895 20.9277C26.7188 20.9082 45.4199 13.2031 45.4883 13.1836C45.498 13.1836 45.5078 18.8281 45.5078 25.7227Z" fill="#F5C542"/>
</svg>
