<svg viewBox="0 0 39 47" fill="none" xmlns="http://www.w3.org/2000/svg">
<path d="M38.9499 12.0622C38.9261 10.7974 38.9034 9.60258 38.9034 8.44665C38.9034 7.54107 38.1762 6.80689 37.2788 6.80689C30.3309 6.80689 25.0411 4.79152 20.6317 0.464298C20.0009 -0.154875 18.9971 -0.154657 18.3666 0.464298C13.9577 4.79152 8.66864 6.80689 1.72124 6.80689C0.824031 6.80689 0.096647 7.54107 0.096647 8.44665C0.096647 9.60279 0.0741193 10.7981 0.0500754 12.0631C-0.172602 23.8335 -0.477591 39.9537 18.967 46.7565C19.1395 46.8168 19.3192 46.847 19.499 46.847C19.6788 46.847 19.8588 46.8168 20.031 46.7565C39.4772 39.9534 39.1726 23.8329 38.9499 12.0622ZM19.4993 43.4671C2.82293 37.3526 3.07506 23.9579 3.29882 12.1256C3.31225 11.4155 3.32525 10.7272 3.33435 10.0525C9.84138 9.7753 15.0448 7.78506 19.4993 3.86844C23.9541 7.78506 29.1584 9.77552 35.6659 10.0525C35.675 10.727 35.688 11.4148 35.7014 12.1245C35.925 23.9573 36.1769 37.3524 19.4993 43.4671Z" fill="#F5C542"/>
<path d="M25.093 17.7273L17.2518 25.6412L13.9058 22.264C13.2714 21.6238 12.2427 21.6238 11.6084 22.264C10.974 22.9046 10.974 23.9427 11.6084 24.583L16.1031 29.1197C16.4203 29.4398 16.8362 29.5998 17.2518 29.5998C17.6675 29.5998 18.0834 29.4398 18.4005 29.1197L27.3902 20.0464C28.0248 19.406 28.0248 18.3677 27.3904 17.7275C26.7561 17.0871 25.7274 17.0869 25.093 17.7273Z" fill="#F5C542"/>
</svg>
