<svg viewBox="0 0 47 47" fill="none" xmlns="http://www.w3.org/2000/svg">
<g clip-path="url(#clip0_1_102)">
<path d="M11.8051 5.09473C5.65467 7.88535 0.54158 10.2537 0.440604 10.3455C-0.0183807 10.7494 -2.1333e-05 9.89571 -2.1333e-05 28.5213C-2.1333e-05 44.9254 0.00915836 45.9627 0.165213 46.2656C0.24783 46.44 0.458963 46.6787 0.633377 46.7889L0.945486 47H23.5H46.0545L46.3666 46.7889C46.541 46.6787 46.7521 46.44 46.8347 46.2656C46.9908 45.9627 47 44.9254 47 28.5213C47 9.68457 47.0275 10.7127 46.5135 10.318C46.3941 10.217 41.2443 7.85781 35.0939 5.06719C25.1615 0.569141 23.8396 0 23.4449 0C23.0502 0 21.6549 0.61504 11.8051 5.09473ZM33.8271 7.64668C39.234 10.0885 43.7595 12.1447 43.9064 12.209L44.1543 12.3283V28.2918V44.2461H41.6299H39.1054V30.9998C39.1054 18.5797 39.0963 17.7443 38.9402 17.4414C38.8576 17.267 38.6465 17.0283 38.472 16.9182L38.1599 16.707H23.4541H8.74822L8.43611 16.9182C8.2617 17.0283 8.05056 17.267 7.96795 17.4414C7.81189 17.7443 7.80271 18.5797 7.80271 30.9998V44.2461H5.3242H2.84568L2.86404 28.2734L2.89158 12.3008L13.1728 7.62832C23.0777 3.12109 23.4633 2.95586 23.7295 3.0752C23.8855 3.13945 28.4295 5.19571 33.8271 7.64668ZM36.2597 26.3457V33.2305H31.2201H26.1896L25.8775 33.4416C25.2258 33.873 25.2441 33.717 25.2441 39.2615V44.2461H23.4541H21.664V33.7537C21.664 22.0588 21.7099 22.8758 21.0306 22.426L20.7185 22.2148H15.6881H10.6484V20.8379V19.4609H23.4541H36.2597V26.3457ZM13.3105 25.8133C13.3105 26.8047 13.4574 27.1902 13.9439 27.5115C14.614 27.9613 15.633 27.7043 15.991 26.9883C16.1103 26.7496 16.1562 26.4467 16.1562 25.8133V24.9688H17.4873H18.8183V29.0996V33.2305H14.7334H10.6484V29.0996V24.9688H11.9795H13.3105V25.8133ZM13.3105 36.8289C13.3105 37.8203 13.4574 38.2059 13.9439 38.5271C14.3754 38.8209 15.0914 38.8209 15.5228 38.5271C16.0094 38.2059 16.1562 37.8203 16.1562 36.8289V35.9844H17.4873H18.8183V40.1152V44.2461H14.7334H10.6484V40.1152V35.9844H11.9795H13.3105V36.8289ZM30.7519 36.8289C30.7519 37.4623 30.7978 37.7652 30.9172 38.0039C31.4129 38.9953 32.9367 38.9953 33.4324 38.0039C33.5517 37.7652 33.5976 37.4623 33.5976 36.8289V35.9844H34.9287H36.2597V40.1152V44.2461H32.1748H28.0898V40.1152V35.9844H29.4209H30.7519V36.8289Z" fill="#F5C542"/>
<path d="M18.5338 9.57441C17.7076 10.1252 17.7076 11.3553 18.5338 11.9061L18.8459 12.1172H23.4541H28.0623L28.3744 11.9061C29.2005 11.3553 29.2005 10.1252 28.3744 9.57441L28.0623 9.36328H23.4541H18.8459L18.5338 9.57441Z" fill="#F5C542"/>
</g>
<defs>
<clipPath id="clip0_1_102">
<rect width="47" height="47" fill="white"/>
</clipPath>
</defs>
</svg>
