<svg viewBox="0 0 40 39" fill="none" xmlns="http://www.w3.org/2000/svg">
<path d="M8.33378 3.80165C9.37547 3.80165 10.2199 2.95062 10.2199 1.90082C10.2199 0.851028 9.37547 0 8.33378 0C7.29209 0 6.44763 0.851028 6.44763 1.90082C6.44763 2.95062 7.29209 3.80165 8.33378 3.80165Z" fill="#FF9549"/>
<path d="M32.5635 32.5204C33.6052 32.5204 34.4497 31.6694 34.4497 30.6196C34.4497 29.5698 33.6052 28.7188 32.5635 28.7188C31.5218 28.7188 30.6774 29.5698 30.6774 30.6196C30.6774 31.6694 31.5218 32.5204 32.5635 32.5204Z" fill="#FF9549"/>
<g clip-path="url(#clip0_1_197)">
<path d="M22.1953 2.83754C22.118 2.90786 18.9398 7.44301 15.1219 12.9274C7.57734 23.7625 7.97109 23.1368 8.36484 23.5586L8.53359 23.7415H13.4273C16.1273 23.7415 18.3141 23.7696 18.3141 23.8047C18.3141 23.8329 18.0609 27.018 17.7516 30.8782C17.4422 34.7383 17.1891 38.0008 17.1891 38.1344C17.1891 38.4719 17.4492 38.718 17.8078 38.718C17.9766 38.718 18.1453 38.6688 18.2297 38.5915C18.307 38.5282 21.4852 33.993 25.3031 28.5157C32.8477 17.6735 32.4539 18.2993 32.0602 17.8774L31.8914 17.6946H26.5477C23.6086 17.6946 21.1547 17.7157 21.0914 17.7368C20.9578 17.793 20.775 18.1235 20.775 18.3204C20.775 18.5524 20.9227 18.7985 21.1055 18.8829C21.225 18.9391 22.6383 18.9602 25.8094 18.9602C28.3055 18.9602 30.3375 18.9883 30.3234 19.0235C30.3164 19.0516 27.6937 22.8204 24.5016 27.3977C20.8102 32.6922 18.6937 35.6665 18.6797 35.5821C18.6727 35.5118 18.8836 32.6852 19.1578 29.3032C19.425 25.9282 19.65 23.1016 19.65 23.0243C19.65 22.9469 19.5586 22.7922 19.4461 22.6797L19.2422 22.4758H14.6578C12.1406 22.4758 10.0875 22.4477 10.1016 22.4196C10.193 22.1735 21.7312 5.74145 21.7453 5.82582C21.7594 5.88208 21.5906 8.11802 21.3727 10.7829C21.1617 13.4547 20.9859 15.768 20.9859 15.9297C20.9859 16.5344 21.6187 16.7946 22.0477 16.3657C22.1742 16.2321 22.2516 16.0844 22.2516 15.9579C22.2516 15.8524 22.4766 13.0118 22.7437 9.65083C23.018 6.28989 23.2359 3.42817 23.2359 3.30161C23.2359 2.80942 22.568 2.51411 22.1953 2.83754Z" fill="#F5C542"/>
</g>
<path d="M31.5044 13.8733C31.6126 14.1772 31.6992 14.4885 31.7637 14.8047C31.9162 15.4235 32.0195 16.0536 32.0726 16.6889C37.0897 21.8164 39.1244 26.4188 37.7051 28.5192C36.5263 30.2584 32.8294 30.3796 27.8358 28.6855C27.1849 28.4821 26.545 28.2442 25.919 27.9727C22.3077 26.4842 18.8719 24.5955 15.6749 22.3415C12.8526 20.4052 10.2148 18.2091 7.79551 15.7813C7.25088 15.2324 6.75341 14.7097 6.30309 14.1846C2.29503 9.65348 0.788466 5.69264 2.05926 3.8322C2.67461 2.92694 3.97606 2.44935 5.77497 2.44935C7.83559 2.44935 10.5564 3.0695 13.6803 4.30979C14.2721 4.54739 14.8874 4.81113 15.5264 5.09625C15.5631 4.96584 15.6104 4.83869 15.6678 4.71609C15.8352 4.35731 16.0238 3.97477 16.2124 3.61836C8.92248 0.327559 2.77364 -0.150023 0.710662 2.90555C-1.25329 5.74253 0.972366 10.87 5.91879 16.1899C6.46106 16.7388 7.00568 17.3114 7.56917 17.8532C9.80679 19.9842 12.2046 21.9376 14.7412 23.6958C17.7155 25.7776 20.8862 27.5588 24.2073 29.0134C24.9147 29.3246 25.622 29.6098 26.3128 29.8497C29.2009 30.9213 31.8274 31.4702 33.9823 31.4702C36.3235 31.4702 38.0988 30.8263 39.0466 29.4434C39.5273 28.7172 39.7742 27.8593 39.7539 26.9866C39.7634 23.5343 36.6583 18.6444 31.5044 13.8733Z" fill="#E9B949"/>
<defs>
<clipPath id="clip0_1_197">
<rect width="36" height="36" fill="white" transform="translate(2.21252 2.71802)"/>
</clipPath>
</defs>
</svg>
